<?xml version="1.0" encoding="utf-8"?>
<!-- Generator: Adobe Illustrator 17.1.0, SVG Export Plug-In . SVG Version: 6.00 Build 0)  -->
<!DOCTYPE svg PUBLIC "-//W3C//DTD SVG 1.1//EN" "http://www.w3.org/Graphics/SVG/1.1/DTD/svg11.dtd">
<svg version="1.1" id="Layer_1" xmlns="http://www.w3.org/2000/svg" xmlns:xlink="http://www.w3.org/1999/xlink" x="0px" y="0px"
	 viewBox="495.468 15.163 303.721 499.999" enable-background="new 495.468 15.163 303.721 499.999" xml:space="preserve">
<path d="M647.362,15.163c97.206,132.507,147.355,297.512,151.827,465.299c-27.982-54.51-58.185-106.852-90.147-153.184
	c-10.369-16.086-15.708-13.838-38.173-0.266c-73.622,49.295-124.641,117.327-175.401,188.15
	C507.262,342.649,539.069,149.534,647.362,15.163L647.362,15.163z"/>
<path fill="#FFD700" d="M647.196,37.403c-75.011,84.911-120.261,252.575-137.28,423.657
	c44.927-62.344,104.592-127.139,157.289-156.535c26.01-14.113,33.962-7.073,43.378,3.476
	c24.464,29.292,49.714,71.425,67.636,104.806C764.256,262.022,716.089,131.627,647.196,37.403z M668.06,241.945l5.089,36.318
	l-27.65-33.069l-26.089,33.398l4.15-36.681l-46.062-15.696l49.253-12.264L646.594,61.55l17.3,152.388l51.108,12.272L668.06,241.945z
	"/>
</svg>
